<svg width="193px" height="165px" viewBox="0 0 193 165" version="1.1" xmlns="http://www.w3.org/2000/svg" xmlns:xlink="http://www.w3.org/1999/xlink">
    <!-- Generator: Sketch 51.2 (57519) - http://www.bohemiancoding.com/sketch -->
    <desc>Created with Sketch.</desc>
    <defs>
        <radialGradient cx="24.9728733%" cy="13.1510417%" fx="24.9728733%" fy="13.1510417%" r="85.8772745%" id="radialGradient-1">
            <stop stop-color="#714BFE" offset="0%"></stop>
            <stop stop-color="#6047FA" offset="51.0853452%"></stop>
            <stop stop-color="#5727E1" offset="100%"></stop>
        </radialGradient>
        <path d="M266.900701,68.1777428 L266.900701,78.1777428 C266.900701,78.7300275 266.452986,79.1777428 265.900701,79.1777428 L257.398524,79.1777428 C256.846239,79.1777428 256.398524,78.7300275 256.398524,78.1777428 L256.398524,68.1777428 L253,68.1777428 C252.447715,68.1777428 252,67.7300275 252,67.1777428 C252,66.9827531 252.057006,66.7920173 252.164004,66.6290068 L260.813617,53.4513769 C261.116675,52.9896693 261.736641,52.8610587 262.198349,53.1641172 C262.312748,53.2392072 262.410518,53.3369777 262.485608,53.4513769 L271.135221,66.6290068 C271.438279,67.0907145 271.309669,67.71068 270.847961,68.0137385 C270.684951,68.1207363 270.494215,68.1777428 270.299225,68.1777428 L266.900701,68.1777428 Z" id="path-2"></path>
        <filter x="-5.2%" y="-3.8%" width="110.4%" height="115.3%" filterUnits="objectBoundingBox" id="filter-3">
            <feOffset dx="0" dy="2" in="SourceAlpha" result="shadowOffsetOuter1"></feOffset>
            <feColorMatrix values="0 0 0 0 0.00527929305   0 0 0 0 0.0430976607   0 0 0 0 0.143946641  0 0 0 1 0" type="matrix" in="shadowOffsetOuter1"></feColorMatrix>
        </filter>
    </defs>
    <g id="Page-1" stroke="none" stroke-width="1" fill="none" fill-rule="evenodd">
        <g id="Home" transform="translate(-638.000000, -1385.000000)">
            <g id="Group-20" transform="translate(525.000000, 1335.000000)">
                <g id="Group-18" transform="translate(21.000000, 50.000000)">
                    <circle id="Oval-9-Copy" fill="url(#radialGradient-1)" fill-rule="nonzero" cx="174.5" cy="82.5" r="82.5"></circle>
                    <g id="Group-6" transform="translate(127.000000, 74.000000)">
                        <path d="M27.9946999,23.7688491 L31.6446211,12.00943 C32.4248438,9.49568661 35.0079869,8.00559039 37.5746303,8.58868095 L88.3370328,20.1208934 C91.051384,20.7375403 92.7519094,23.4378477 92.1352626,26.1521989 C92.0826772,26.3836687 92.0138054,26.6111344 91.9291613,26.8328975 L77.9216333,63.5318955 C76.9656397,66.0365492 74.2161979,67.3544757 71.6648974,66.5310201 L26.0374241,51.8043344 C23.5306339,50.9952448 22.069696,48.3922412 22.6848589,45.8309529 L27.9075365,24.0858472 C27.933136,23.9792614 27.9622059,23.8735391 27.9946999,23.7688491 Z" id="Path-60" fill="#1CC5BC"></path>
                        <path d="M0.604710691,49.2920754 L8.22467122,3.96862223 C8.57079536,1.90987911 10.5203255,0.521527112 12.5790686,0.867651254 C12.656848,0.880727836 12.7341991,0.896235556 12.8110082,0.914151637 L28.7658077,4.63568092 C29.8563026,4.89004378 30.7778976,5.61480721 31.2821667,6.61460321 L34.7078789,13.4066377 C35.2484893,14.4784863 36.2660899,15.2298198 37.4495877,15.4309465 L76.4074864,22.0515526 C78.4233375,22.3941315 79.8013277,24.2776153 79.5176219,26.3025911 L74.2343278,64.0125706 C73.944672,66.0800146 72.0338651,67.5211967 69.9664211,67.2315409 C69.8876773,67.2205086 69.8093011,67.2069945 69.7314096,67.1910187 L3.57291517,53.6217049 C1.57933206,53.2128148 0.267299652,51.2989931 0.604710691,49.2920754 Z" id="Path-59" fill="#1F346C"></path>
                    </g>
                    <g id="Group-2" transform="translate(149.500000, 50.000000) scale(-1, 1) translate(-149.500000, -50.000000) translate(125.000000, 30.000000)" fill-rule="nonzero">
                        <path d="M11.31,39.8865948 C10.47,39.8865948 9.56,39.7466872 8.58,39.5368259 C5.43,38.6973806 0.6,37.648074 0.53,37.648074 C0.46,37.648074 0.39,37.5781202 0.39,37.5081664 C0.32,37.4382126 0.32,37.3682589 0.39,37.2983051 L9,6.51864407 C9,6.44869029 9.07,6.37873652 9.14,6.37873652 C9.21,6.37873652 9.28,6.30878274 9.35,6.37873652 C9.49,6.37873652 20.48,9.66656394 24.19,10.5060092 C27.27,11.1355932 30.28,9.80647149 30.28,9.80647149 C30.35,9.73651772 30.49,9.80647149 30.56,9.87642527 C30.63,9.94637904 30.77,15.0530046 31.61,20.5093991 L18.45,36.1790447 C18.45,36.1790447 18.45,36.2489985 18.45,36.2489985 C16.49,38.6274268 14.11,39.8865948 11.31,39.8865948 Z" id="Shape" fill="#F7F8FB"></path>
                        <path d="M14.88,17.2215716 L48.27,0.642526965 L18.31,36.1790447 C18.38,36.1790447 25.31,26.3155624 14.88,17.2215716 Z" id="Shape" fill="#1F346C"></path>
                    </g>
                    <g id="Group" transform="translate(182.000000, 66.000000)" fill-rule="nonzero">
                        <path d="M10.99,27.0721109 C9.8,27.0721109 8.96,26.9322034 8.68,26.6523883 C8.54,26.5124807 8.47,26.3026194 8.54,26.1627119 C9.1,23.644376 10.78,8.32449923 10.78,0.489676425 C10.78,0.41972265 10.78,0.349768875 10.85,0.2798151 C10.92,0.209861325 10.99,0.209861325 11.06,0.209861325 L41.93,5.0366718 C42,5.0366718 42.07,5.10662558 42.14,5.17657935 C42.21,5.24653313 42.21,5.3164869 42.14,5.38644068 C38.71,16.6489985 42.7,21.6856703 42.7,21.755624 C42.77,21.8255778 42.77,21.8955316 42.77,22.0354391 C42.77,22.1053929 42.63,22.1753467 42.56,22.1753467 C39.76,22.7349769 18.27,27.0721109 10.99,27.0721109 Z" id="Shape" fill="#E44646"></path>
                        <path d="M38.5,8.46440678 C38.5,8.46440678 38.5,8.46440678 38.5,8.46440678 L13.65,4.89676425 C13.51,4.89676425 13.37,4.7568567 13.44,4.61694915 C13.44,4.4770416 13.58,4.33713405 13.72,4.40708783 L38.5,7.97473035 C38.64,7.97473035 38.78,8.1146379 38.71,8.25454545 C38.78,8.394453 38.64,8.46440678 38.5,8.46440678 Z" id="Shape" fill="#BCD6E0"></path>
                        <path d="M38.5,11.5423729 C38.5,11.5423729 38.5,11.5423729 38.5,11.5423729 L13.3,8.46440678 C13.16,8.46440678 13.02,8.32449923 13.09,8.18459168 C13.09,8.04468413 13.23,7.90477658 13.37,7.97473035 L38.57,11.0526965 C38.71,11.0526965 38.85,11.192604 38.78,11.3325116 C38.78,11.4024653 38.64,11.5423729 38.5,11.5423729 Z" id="Shape" fill="#BCD6E0"></path>
                        <path d="M38.5,14.2705701 C38.5,14.2705701 38.5,14.2705701 38.5,14.2705701 L13.3,11.8921418 C13.16,11.8921418 13.02,11.7522342 13.09,11.6123267 C13.09,11.4724191 13.23,11.3325116 13.37,11.4024653 L38.57,13.7808937 C38.71,13.7808937 38.85,13.9208012 38.78,14.0607088 C38.78,14.2006163 38.64,14.2705701 38.5,14.2705701 Z" id="Shape" fill="#BCD6E0"></path>
                        <path d="M0.28,30.2200308 L4.55,32.948228 L42.56,21.9654854 C42.56,21.9654854 41.86,23.2246533 34.23,6.9953775 L0.28,30.2200308 Z" id="Shape" fill="#1F346C"></path>
                    </g>
                    <path d="M247,39 L275,39 C280.522847,39 285,43.4771525 285,49 L285,84 C285,89.5228475 280.522847,94 275,94 L247,94 C241.477153,94 237,89.5228475 237,84 L237,49 C237,43.4771525 241.477153,39 247,39 Z" id="Rectangle-8" fill="#1F346C" fill-rule="nonzero"></path>
                    <g id="Combined-Shape" fill-rule="nonzero">
                        <use fill="black" fill-opacity="1" filter="url(#filter-3)" xlink:href="#path-2"></use>
                        <use fill="#FFFFFF" xlink:href="#path-2"></use>
                    </g>
                </g>
            </g>
        </g>
    </g>
</svg>