<svg width="46px" height="49px" viewBox="0 0 46 49" version="1.1" xmlns="http://www.w3.org/2000/svg" xmlns:xlink="http://www.w3.org/1999/xlink">
    <!-- Generator: Sketch 51.2 (57519) - http://www.bohemiancoding.com/sketch -->
    <desc>Created with Sketch.</desc>
    <defs></defs>
    <g id="Page-1" stroke="none" stroke-width="1" fill="none" fill-rule="evenodd">
        <g id="Guide" transform="translate(-1222.000000, -373.000000)" fill-rule="nonzero">
            <g id="controls" transform="translate(1222.000000, 373.000000)">
                <g id="Group" transform="translate(0.000000, 4.000000)" fill="#FFFFFF">
                    <path d="M10.8518519,1.71428571 L44.9259259,1.71428571 C45.397,1.71428571 45.7777778,1.33114286 45.7777778,0.857142857 C45.7777778,0.383142857 45.397,0 44.9259259,0 L10.8518519,0 C10.3816296,0 10,0.383142857 10,0.857142857 C10,1.33114286 10.3816296,1.71428571 10.8518519,1.71428571 Z" id="Shape"></path>
                    <path d="M34.9259259,38 L0.851851852,38 C0.38162963,38 0,38.3831429 0,38.8571429 C0,39.3311429 0.38162963,39.7142857 0.851851852,39.7142857 L34.9259259,39.7142857 C35.3961481,39.7142857 35.7777778,39.3311429 35.7777778,38.8571429 C35.7777778,38.3831429 35.3961481,38 34.9259259,38 Z" id="Shape"></path>
                    <path d="M45.1481481,20 L28.962963,20 C28.4927407,20 28.1111111,20.3831429 28.1111111,20.8571429 C28.1111111,21.3311429 28.4927407,21.7142857 28.962963,21.7142857 L45.1481481,21.7142857 C45.6192222,21.7142857 46,21.3311429 46,20.8571429 C46,20.3831429 45.6192222,20 45.1481481,20 Z" id="Shape"></path>
                    <path d="M0.851851852,21.7142857 L17.8888889,21.7142857 C18.3591111,21.7142857 18.7407407,21.3311429 18.7407407,20.8571429 C18.7407407,20.3831429 18.3591111,20 17.8888889,20 L0.851851852,20 C0.38162963,20 0,20.3831429 0,20.8571429 C0,21.3311429 0.38162963,21.7142857 0.851851852,21.7142857 Z" id="Shape"></path>
                </g>
                <ellipse id="Oval" fill="#FFFFFF" cx="6.11111111" cy="5.14285714" rx="5.11111111" ry="5.14285714"></ellipse>
                <ellipse id="Oval" fill="#1CC5BC" cx="23.2874444" cy="24.3202857" rx="5.28744444" ry="5.32028571"></ellipse>
                <ellipse id="Oval" fill="#FFFFFF" cx="40.1111111" cy="43.1428571" rx="5.11111111" ry="5.14285714"></ellipse>
            </g>
        </g>
    </g>
</svg>