<svg width="63px" height="54px" viewBox="0 0 63 54" version="1.1" xmlns="http://www.w3.org/2000/svg" xmlns:xlink="http://www.w3.org/1999/xlink">
    <!-- Generator: Sketch 51.2 (57519) - http://www.bohemiancoding.com/sketch -->
    <desc>Created with Sketch.</desc>
    <defs></defs>
    <g id="Page-1" stroke="none" stroke-width="1" fill="none" fill-rule="evenodd">
        <g id="Guide" transform="translate(-974.000000, -374.000000)" fill-rule="nonzero">
            <g id="energy-saving" transform="translate(974.000000, 374.000000)">
                <path d="M56.3033128,31.8585706 C56.3007692,31.8579353 56.2983846,31.8573 56.295841,31.8568235 C55.6868103,31.7091176 55.0726923,32.0810824 54.9223026,32.6890588 C51.7525128,45.9111176 38.4541487,54.0624176 25.2196923,50.8956353 C17.3835282,49.0205647 10.9600103,43.4363294 8.01850769,35.9417647 L12.0946103,35.0841176 C12.7120667,34.9664294 13.1171333,34.3708412 12.9993333,33.7539706 C12.9607026,33.5517882 12.8678615,33.3637412 12.7305077,33.2101588 L9.07409744,29.1315706 L5.44948205,25.1292176 C5.06460513,24.6325765 4.34969744,24.5418882 3.85258462,24.9264 C3.67055897,25.0671176 3.53558974,25.2597706 3.46548205,25.4786294 L1.76127692,30.6816882 L0.0570717949,35.8656882 C-0.139102564,36.4623882 0.186158974,37.1049882 0.783266667,37.3009765 C0.973717949,37.3633941 1.17720513,37.3746706 1.37337949,37.3332176 L5.76107179,36.4120412 C10.9864,50.3164059 26.504841,57.3561 40.4224103,52.1355706 C48.7881179,48.9975353 55.0498,41.9165471 57.1352256,33.2355706 C57.2860923,32.6256882 56.9136154,32.0092941 56.3033128,31.8585706 Z" id="Shape" fill="#FFFFFF"></path>
                <g id="Group" transform="translate(21.779487, 10.164706)" fill="#1CC5BC">
                    <path d="M18.0911231,0.0729 L5.93912308,0.0729 C5.84707692,0.0733764706 5.7653641,0.131982353 5.7356359,0.219017647 L0.0697897436,17.5371353 C0.0276615385,17.6487882 0.0839384615,17.7733059 0.195697436,17.8155529 C0.218430769,17.8241294 0.242594872,17.8288941 0.266917949,17.8293706 L5.43040513,17.8293706 L1.45604615,33.2670176 C1.41868718,33.3802588 1.48021026,33.5023941 1.59371795,33.5397176 C1.6733641,33.5659235 1.76095897,33.5438471 1.81850769,33.4830176 L17.5633282,15.2119588 C17.6405897,15.1211118 17.6294615,14.9846824 17.5385282,14.9074941 C17.5010103,14.8755706 17.4536359,14.8574647 17.4043538,14.8561941 L10.6956359,14.8561941 L18.2755333,0.384194118 C18.2936564,0.355447059 18.3046256,0.322729412 18.3073282,0.2889 C18.3073282,0.169623529 18.2106718,0.0729 18.0911231,0.0729 Z" id="Shape"></path>
                </g>
                <path d="M61.868558,17.0764473 C61.6731155,17.0123939 61.4642954,17.0008219 61.2629798,17.0433612 L61.2629798,17.0238029 L56.760297,17.9691211 C51.3978628,3.70035765 35.4728853,-3.5238293 21.1905713,1.83351717 C12.6056192,5.05379255 6.17983408,12.3203558 4.03975463,21.2288391 C3.91315747,21.8607354 4.32329314,22.4756812 4.95578956,22.6021582 C5.55598412,22.7222789 6.14704281,22.3591463 6.31067291,21.7699523 C9.56353494,8.20137622 23.210416,-0.163549037 36.7918777,3.08622679 C44.8334081,5.0104383 51.4252705,10.7410225 54.4436993,18.4320011 L50.2607723,19.3121249 C49.6271339,19.4328975 49.2114514,20.0440946 49.3323387,20.6771318 C49.3719819,20.8846129 49.467256,21.0775882 49.6082096,21.2351955 L53.3604452,25.4206734 L57.0604759,29.5474763 C57.4554395,30.0571332 58.1890831,30.1501982 58.699224,29.7556093 C58.8860201,29.6112038 59.0245265,29.4135019 59.0964716,29.1889074 L60.8453397,23.8494893 L62.6137846,18.5491879 C62.8151002,17.9368499 62.4814775,17.2775719 61.868558,17.0764473 Z" id="Shape" fill="#FFFFFF"></path>
            </g>
        </g>
    </g>
</svg>