
<svg width="26px" height="26px" viewBox="0 0 26 26" version="1.1" xmlns="http://www.w3.org/2000/svg" xmlns:xlink="http://www.w3.org/1999/xlink">
    <!-- Generator: Sketch 51.2 (57519) - http://www.bohemiancoding.com/sketch -->
    <desc>Created with Sketch.</desc>
    <defs></defs>
    <g id="Symbols" stroke="none" stroke-width="1" fill="none" fill-rule="evenodd">
        <path d="M26,13.3289 C26,19.2166 22.2794,24.2112 17.1171,25.9753 C16.458,26.1066 16.224,25.6906 16.224,25.3357 C16.224,24.8963 16.2396,23.4611 16.2396,21.6775 C16.2396,20.4347 15.8236,19.6235 15.3569,19.2101 C18.252,18.8799 21.294,17.7528 21.294,12.6334 C21.294,11.1774 20.7896,9.9892 19.955,9.0558 C20.0902,8.7191 20.5361,7.3632 19.8276,5.5276 C19.8276,5.5276 18.7382,5.1701 16.2565,6.8939 C15.1961672,6.59835114 14.10075,6.4474853 13,6.4454 C11.9000976,6.4473852 10.8055259,6.59825505 9.7461,6.8939 C7.2618,5.1701 6.1698,5.5276 6.1698,5.5276 C5.4639,7.3632 5.9098,8.7191 6.0437,9.0558 C5.213,9.9892 4.7047,11.1774 4.7047,12.6334 C4.7047,17.7398 7.7402,18.8838 10.6275,19.2205 C10.2557,19.5533 9.919,20.1409 9.802,21.0028 C9.061,21.3434 7.1786,21.9323 6.019,19.8952 C6.019,19.8952 5.3313,18.6147 4.0261,18.5211 C4.0261,18.5211 2.7586,18.5042 3.9377,19.331 C3.9377,19.331 4.7892,19.7405 5.3807,21.281 C5.3807,21.281 6.1438,23.66 9.7604,22.854 C9.7669,23.9681 9.7786,25.0185 9.7786,25.3357 C9.7786,25.688 9.5394,26.1001 8.8907,25.9766 C3.7245,24.2151 0,19.2179 0,13.3289 C0,5.967 5.8214,0 13,0 C20.1799,1.18234311e-12 26,5.967 26,13.3289 Z" id="github-[#142]" fill="#514EFA" fill-rule="nonzero"></path>
    </g>
</svg>