<svg width="13px" height="13px" viewBox="0 0 13 13" version="1.1" xmlns="http://www.w3.org/2000/svg" xmlns:xlink="http://www.w3.org/1999/xlink">
    <!-- Generator: Sketch 51.2 (57519) - http://www.bohemiancoding.com/sketch -->
    <desc>Created with Sketch.</desc>
    <defs></defs>
    <g id="Symbols" stroke="none" stroke-width="1" fill="none" fill-rule="evenodd">
        <g id="Buttons/Social/Google" transform="translate(-14.000000, -14.000000)" fill="#5468DE">
            <g id="Google">
                <path d="M26.3929219,19.302319 L20.626779,19.302319 C20.626779,19.9019814 20.626779,21.1013063 20.6231032,21.7009687 L23.9644274,21.7009687 C23.8363862,22.3006311 23.3824219,23.1401586 22.7409906,23.5629206 C22.7403779,23.5623209 22.7397653,23.5665185 22.73854,23.5659189 C21.8857488,24.1290019 20.7603339,24.25673 19.9246966,24.0888245 C18.6148779,23.828571 17.5782954,22.8787057 17.1574135,21.6721849 C17.1598641,21.6703859 17.161702,21.6535954 17.1635399,21.6523961 C16.9001058,20.9040173 16.9001058,19.9019814 17.1635399,19.302319 L17.1629273,19.302319 C17.5023284,18.2001394 18.5701553,17.1945055 19.8818119,16.9192605 C20.9367735,16.6955864 22.1271279,16.93785 23.0025867,17.7569889 C23.1189878,17.643053 24.613823,16.1834747 24.7259357,16.0647415 C21.73504,13.3560663 16.9460536,14.3089299 15.1540893,17.8067609 L15.1534767,17.8067609 C15.1534767,17.8067609 15.1540893,17.8067609 15.1504135,17.8133572 L15.1504135,17.8133572 C14.2639272,19.53139 14.3006855,21.5558504 15.1565399,23.1917295 C15.1540893,23.1935285 15.1522514,23.1947278 15.1504135,23.1965268 C15.9260124,24.7016795 17.3375289,25.8560297 19.0382103,26.2955823 C20.8448779,26.7693156 23.144106,26.4454979 24.6842763,25.052482 C24.684889,25.0530817 24.6855016,25.0536814 24.6861142,25.054281 C25.9910318,23.8789427 26.803389,21.8766698 26.3929219,19.302319" id="google"></path>
            </g>
        </g>
    </g>
</svg>