
<svg width="189px" height="165px" viewBox="0 0 189 165" version="1.1" xmlns="http://www.w3.org/2000/svg" xmlns:xlink="http://www.w3.org/1999/xlink">
    <!-- Generator: Sketch 51.2 (57519) - http://www.bohemiancoding.com/sketch -->
    <desc>Created with Sketch.</desc>
    <defs>
        <radialGradient cx="24.9728733%" cy="13.1510417%" fx="24.9728733%" fy="13.1510417%" r="85.8772745%" id="radialGradient-1">
            <stop stop-color="#714BFE" offset="0%"></stop>
            <stop stop-color="#6047FA" offset="51.0853452%"></stop>
            <stop stop-color="#5727E1" offset="100%"></stop>
        </radialGradient>
    </defs>
    <g id="Page-1" stroke="none" stroke-width="1" fill="none" fill-rule="evenodd">
        <g id="Home" transform="translate(-204.000000, -1385.000000)" fill-rule="nonzero">
            <g id="Group-22" transform="translate(100.000000, 1335.000000)">
                <g id="Group-19" transform="translate(21.000000, 50.000000)">
                    <circle id="Oval-9" fill="url(#radialGradient-1)" cx="165.5" cy="82.5" r="82.5"></circle>
                    <rect id="Rectangle-9" fill="#FFFFFF" x="116" y="30" width="77" height="102" rx="4"></rect>
                    <circle id="Oval-10" stroke="#1CC5BC" stroke-width="4" cx="136.5" cy="49.5" r="14.5"></circle>
                    <g id="Group-13" transform="translate(125.000000, 47.000000)">
                        <rect id="Rectangle-12" fill="#06B37D" x="1" y="60" width="14" height="12"></rect>
                        <rect id="Rectangle-12-Copy" fill="#FFCC54" x="22" y="60" width="14" height="12"></rect>
                        <rect id="Rectangle-11" fill="#6849FC" x="0" y="39" width="59" height="4"></rect>
                        <rect id="Rectangle-11-Copy" fill="#4223B9" x="0" y="47" width="59" height="4"></rect>
                        <rect id="Rectangle-10" fill="#1F346C" x="10" y="0" width="36" height="29"></rect>
                    </g>
                    <g id="Search" transform="translate(151.000000, 64.000000)" fill="#E44646">
                        <path d="M29.3195,7.904 C22.0138333,7.904 15.155,11.81 11.4205,18.0983333 C11.2075102,18.4567898 11.2019337,18.901646 11.4058712,19.2653288 C11.6098087,19.6290117 11.9922772,19.8562691 12.4092045,19.8614955 C12.8261319,19.8667219 13.2141768,19.6491231 13.4271667,19.2906667 C16.744,13.707 22.8328333,10.2373333 29.3195,10.2373333 C29.9638322,10.2373333 30.4861667,9.71499887 30.4861667,9.07066667 C30.4861667,8.42633446 29.9638322,7.904 29.3195,7.904 Z" id="Shape"></path>
                        <path d="M10.4615,23.087 C9.83438648,22.9412869 9.20763724,23.3305916 9.06033333,23.9573333 C8.7115,25.446 8.51433333,26.3688333 8.51433333,28.0255 C8.51433333,28.6698322 9.03666779,29.1921667 9.681,29.1921667 C10.3253322,29.1921667 10.8476667,28.6698322 10.8476667,28.0255 C10.8476667,26.6196667 11.0051667,25.8858333 11.3318333,24.4881667 C11.4782327,23.8609399 11.0886474,23.2337389 10.4615,23.087 Z" id="Shape"></path>
                        <path d="M74.2151667,62.9251667 L55.3828333,44.094 C54.9808454,43.6874213 54.5208543,43.3426246 54.0178333,43.0708333 C56.5660763,38.713488 57.9070885,33.75577 57.9028333,28.708 C57.9028333,12.9463333 45.0811667,0.124666667 29.3195,0.124666667 C13.559,0.124666667 0.736166667,12.9463333 0.736166667,28.708 C0.736166667,44.4696667 13.559,57.2901667 29.3195,57.2901667 C34.9311667,57.2901667 40.1648333,55.6591667 44.5841667,52.8556667 C44.8233333,53.2511667 45.1231667,53.6326667 45.4825,53.992 L64.3148333,72.8255 C65.6257498,74.141781 67.408461,74.8793966 69.2661667,74.8741667 C71.1235195,74.8793449 72.9058491,74.1417133 74.2163333,72.8255 C75.5325891,71.5155218 76.2702565,69.7335257 76.265,67.8765 C76.269272,66.0187541 75.5313258,64.236259 74.2151667,62.9251667 Z M5.40283333,28.7091667 C5.40283333,15.5211667 16.1315,4.7925 29.3195,4.7925 C42.5086667,4.7925 53.2361667,15.5211667 53.2361667,28.7091667 C53.2361667,41.8983333 42.5063333,52.6246667 29.3195,52.6246667 C16.1315,52.6246667 5.40283333,41.8983333 5.40283333,28.7091667 Z M70.9146667,69.5261667 C70.0315,70.4058333 68.495,70.4058333 67.613,69.5261667 L48.7818333,50.6938333 C48.6185,50.5316667 48.5578333,50.4231667 48.5496667,50.4231667 C48.5531667,50.373 48.6173333,49.8923333 49.9508333,48.5611667 C51.2808333,47.2276667 51.7615,47.167 51.7766667,47.1576667 C51.807,47.167 51.9155,47.2276667 52.0835,47.3945 L70.9135,66.2256667 C71.3556667,66.6678333 71.5971667,67.2535 71.5971667,67.8776667 C71.5974191,68.4959593 71.3518942,69.0889963 70.9146667,69.5261667 Z" id="Shape"></path>
                    </g>
                    <circle id="Oval-12" fill="#1F346C" cx="242.5" cy="48.5" r="29.5"></circle>
                    <g id="Group-14" transform="translate(226.000000, 34.000000)" fill="#FFFFFF">
                        <rect id="Rectangle-13" x="0" y="0" width="13" height="12"></rect>
                        <rect id="Rectangle-13-Copy-2" x="0" y="18" width="13" height="12"></rect>
                        <rect id="Rectangle-13-Copy" x="20" y="0" width="13" height="12"></rect>
                        <rect id="Rectangle-13-Copy-3" x="20" y="18" width="13" height="12"></rect>
                    </g>
                </g>
            </g>
        </g>
    </g>
</svg>