
<svg width="81px" height="34px" viewBox="0 0 81 34" version="1.1" xmlns="http://www.w3.org/2000/svg" xmlns:xlink="http://www.w3.org/1999/xlink">
    <g id="Page-1" stroke="none" stroke-width="1" fill="none" fill-rule="evenodd">
        <g id="Home" transform="translate(-680.000000, -1183.000000)" fill-rule="nonzero">
            <g id="Group-27" transform="translate(495.000000, 1107.000000)">
                <g id="LOGO" transform="translate(185.000000, 76.000000)">
                    <g id="TEXT" transform="translate(33.683168, 11.069767)" fill="#1F346C" opacity="0.9">
                        <path d="M5.28559202,1.29550763 L0.14415251,1.29550763 L0.14415251,0.0959635283 L11.7404211,0.0959635283 L11.7404211,1.29550763 L6.59898156,1.29550763 L6.59898156,17.9771676 L5.28559202,17.9771676 L5.28559202,1.29550763 Z M15.2160983,0.0959635283 C15.8087252,0.0959635283 16.2571997,0.559787249 16.2571997,1.13556842 C16.2571997,1.71134959 15.7927083,2.17517331 15.2160983,2.17517331 C14.6234713,2.17517331 14.1749968,1.71134959 14.1749968,1.13556842 C14.1749968,0.559787249 14.6234713,0.0959635283 15.2160983,0.0959635283 Z M14.5754204,4.71820681 L15.8567761,4.71820681 L15.8567761,17.9771676 L14.5754204,17.9771676 L14.5754204,4.71820681 Z M19.700843,4.71820681 L20.9821986,4.71820681 L20.9821986,7.16527678 C21.2865206,6.6534713 22.7280457,4.38233446 25.9154179,4.38233446 C29.695417,4.38233446 32.3862639,7.26124031 32.3862639,11.3077024 C32.3862639,15.4021463 29.7755017,18.31304 26.0435534,18.31304 C23.0323677,18.31304 21.4146562,16.2658181 20.9821986,15.4501281 L20.9821986,22.7593501 L19.700843,22.7593501 L19.700843,4.71820681 Z M26.0115195,17.1134959 C28.9105867,17.1134959 31.0568574,14.7144077 31.0568574,11.3077024 C31.0568574,7.83702148 28.7984681,5.58187856 25.9634687,5.58187856 C22.8721982,5.58187856 20.9181309,8.18888775 20.9181309,11.3077024 C20.9181309,14.9863043 23.2566049,17.1134959 26.0115195,17.1134959 Z M40.9553297,4.38233446 C44.7673628,4.38233446 47.2019385,7.21325855 47.2019385,11.0198118 L47.2019385,11.5636052 L35.877958,11.5636052 C35.877958,15.0822679 38.1363473,17.1294898 41.3077025,17.1294898 C43.7582952,17.1294898 45.1197356,15.9299457 45.8885489,14.858353 L46.7374471,15.4501281 C45.872532,16.8575931 44.1747358,18.31304 41.3077025,18.31304 C37.3995678,18.31304 34.5485515,15.5300977 34.5485515,11.387672 C34.5485515,7.05331933 37.5757542,4.38233446 40.9553297,4.38233446 Z M45.8565151,10.4440307 C45.6963456,7.11729502 43.4219393,5.56588464 40.9232958,5.56588464 C38.520754,5.56588464 36.2143138,7.19726462 35.9580427,10.4440307 L45.8565151,10.4440307 Z" id="Combined-Shape"></path>
                    </g>
                    <g id="CAT-LOGO">
                        <path d="M22.3800917,19.2317181 C21.6211708,17.7638767 20.5554522,16.0414097 20.8138082,14.2140969 C20.8783972,13.7497797 21.0398698,13.3154185 21.3466676,12.9709251 C20.5877467,13.7048458 19.6512061,14.3488987 18.6177819,14.8431718 C18.2948369,14.9929515 17.9718918,15.1277533 17.6327995,15.2625551 C16.6801116,15.6969163 15.9211908,16.1762115 15.3075952,16.6704846 C13.1438634,18.4229075 11.0770151,23.3207048 7.47617782,24.2493392 C7.47617782,24.2493392 7.47617782,24.2493392 7.47617782,24.2493392 C7.02405475,24.4290749 6.49119543,24.5638767 5.89374709,24.5488987 C4.37590538,24.5339207 2.59970762,23.6202643 1.64701974,22.2422907 C0.242208785,20.1903084 0.662037345,17.3744493 1.61472523,15.5770925 C1.58243073,15.6370044 1.55013622,15.6819383 1.53398897,15.7418502 C1.30792744,16.1762115 1.0818659,16.6854626 0.855804372,17.2995595 C0.855804372,17.2995595 0.855804372,17.2995595 0.855804372,17.2995595 C0.355239551,18.6176211 0.0968835139,20.0555066 0.0968835139,21.538326 C0.0968835139,28.3982379 5.82915808,33.9700441 12.9016546,33.9700441 C14.7101469,33.9700441 17.5843578,33.460793 19.9580039,31.9330396 C20.733072,31.4237885 22.7999203,29.9110132 23.6072829,27.1400881 C24.5438235,23.7700441 23.4781049,21.3585903 22.3800917,19.2317181 Z" id="Shape" fill="#D5D5E0"></path>
                        <path d="M8.3965712,23.7400881 C8.15436242,23.9198238 7.84756462,24.0995595 7.47617782,24.2493392 C7.47617782,24.2493392 7.47617782,24.2493392 7.47617782,24.2493392 C11.0770151,23.3207048 13.1438634,18.4229075 15.3075952,16.6704846 C15.9211908,16.1762115 16.6639644,15.6969163 17.6327995,15.2625551 C16.5509336,15.6519824 15.4044787,15.876652 14.1934348,15.876652 C11.0124261,15.876652 8.10592066,14.3039648 6.39431191,12.2819383 C6.55578444,12.49163 8.49345471,14.6035242 9.99514918,18.8273128 C10.6410393,20.6696035 9.89826567,22.661674 8.3965712,23.7400881 Z" id="Shape" fill="#A6A5B7"></path>
                        <path d="M23.5426939,8.94185022 C23.2036016,12.2819383 18.9730215,15.876652 14.1772875,15.876652 C9.34925909,15.876652 5.15097349,12.2669604 4.81188119,8.94185022 C4.5696724,6.60528634 5.99063061,3.54977974 14.1772875,3.54977974 C22.3639444,3.54977974 23.7849027,6.60528634 23.5426939,8.94185022 Z" id="Shape" fill="#E4E4EA"></path>
                        <path d="M21.9441159,0.0149779736 C21.1367533,1.51277533 20.8783972,3.20528634 21.185195,4.82290749 C21.3789621,4.9277533 21.5565818,5.03259912 21.7180544,5.13744493 C23.3327796,6.21585903 23.6718719,7.68370044 23.5426939,8.92687225 C23.5103994,9.30132159 23.4135158,9.6907489 23.2843378,10.0651982 C24.382351,7.3092511 24.2370257,4.32863436 23.0259818,1.79735683 C22.719184,1.18325991 22.3639444,0.584140969 21.9441159,0.0149779736 Z" id="Shape" fill="#A6A5B7"></path>
                        <path d="M21.185195,4.82290749 C20.8783972,3.20528634 21.120606,1.51277533 21.9441159,0.0149779736 C21.4112566,0.314537445 20.8945445,0.659030837 20.4262742,1.04845815 C19.5058808,1.8123348 18.7308127,2.77092511 18.1656588,3.84933921 C18.5208984,3.9092511 18.8599907,3.98414097 19.1829357,4.07400881 C19.9741511,4.26872247 20.6361885,4.53832599 21.185195,4.82290749 Z" id="Shape" fill="#3D3952"></path>
                        <path d="M6.44275367,0.0149779736 C7.25011629,1.51277533 7.50847232,3.20528634 7.20167453,4.82290749 C7.0079075,4.9277533 6.83028773,5.03259912 6.6688152,5.13744493 C5.05408997,6.21585903 4.71499767,7.68370044 4.84417569,8.92687225 C4.8764702,9.30132159 4.97335371,9.6907489 5.10253173,10.0651982 C4.00451857,7.3092511 4.14984384,4.32863436 5.36088777,1.79735683 C5.65153831,1.18325991 6.02292511,0.584140969 6.44275367,0.0149779736 Z" id="Shape" fill="#A6A5B7"></path>
                        <path d="M7.96059539,1.04845815 C7.49232507,0.659030837 6.975613,0.314537445 6.44275367,0.0149779736 C7.25011629,1.51277533 7.50847232,3.20528634 7.20167453,4.82290749 C7.75068111,4.52334802 8.41271845,4.26872247 9.22008107,4.07400881 C9.54302611,3.99911894 9.88211841,3.92422907 10.237358,3.84933921 C9.65605688,2.75594714 8.88098877,1.8123348 7.96059539,1.04845815 Z" id="Shape" fill="#3D3952"></path>
                        <g id="Group" transform="translate(5.813011, 6.889868)">
                            <path d="M16.6316699,1.04845815 C16.5347864,0.614096916 16.3087248,0.269603524 15.8243073,0.164757709 C14.5486743,-0.104845815 11.4645491,1.63259912 9.72064589,2.45638767 C9.0747558,2.77092511 8.71951625,2.92070485 8.38042395,2.90572687 C8.0251844,2.92070485 7.6860921,2.77092511 7.04020201,2.45638767 C5.29629876,1.63259912 2.21217357,-0.119823789 0.936540634,0.164757709 C0.452123065,0.269603524 0.226061532,0.599118943 0.129178018,1.04845815 C-0.0322945046,1.82731278 0.193767028,3.74449339 1.727756,5.16740088 C2.87421091,6.230837 4.42434713,6.74008811 5.71612732,7.06960352 C5.73227457,7.06960352 5.73227457,7.0845815 5.74842182,7.0845815 C5.73227457,7.12951542 5.73227457,7.17444934 5.73227457,7.21938326 C5.73227457,7.71365639 6.34587016,8.1030837 7.12093827,8.1030837 C7.49232507,8.1030837 8.15436242,7.99823789 8.3965712,7.84845815 C8.63877999,8.01321586 9.30081733,8.1030837 9.67220413,8.1030837 C10.431125,8.1030837 11.0608678,7.69867841 11.0608678,7.21938326 C11.0608678,7.17444934 11.0608678,7.12951542 11.0447206,7.0845815 C11.0608678,7.0845815 11.0608678,7.06960352 11.0770151,7.06960352 C12.3687953,6.74008811 13.9189315,6.230837 15.0653864,5.16740088 C16.5832281,3.74449339 16.7931424,1.82731278 16.6316699,1.04845815 Z" id="Shape" fill="#3D3952"></path>
                            <path d="M6.42660642,4.4185022 C4.69885042,6.14096916 1.98611203,4.67312775 1.55013622,2.6061674 C1.25948568,1.24317181 2.1314373,1.45286344 2.95494717,1.75242291 C3.97222407,2.14185022 5.37703502,3.05550661 6.42660642,4.4185022 Z" id="Shape" fill="#FFFFFF"></path>
                            <path d="M4.02066582,3.35506608 C4.02066582,3.80440529 3.89148781,4.20881057 3.66542627,4.55330396 C3.43936474,4.22378855 3.31018672,3.80440529 3.31018672,3.35506608 C3.31018672,2.90572687 3.43936474,2.50132159 3.66542627,2.15682819 C3.89148781,2.48634361 4.02066582,2.90572687 4.02066582,3.35506608 Z" id="Shape" fill="#2F273D"></path>
                            <path d="M8.38042395,6.11101322 C8.0574789,6.09603524 7.70223935,6.18590308 7.36314705,6.48546256 C8.70336899,7.26431718 8.0574789,7.26431718 9.38155359,6.48546256 C9.04246129,6.17092511 8.68722174,6.08105727 8.38042395,6.11101322 Z" id="Shape" fill="#171320"></path>
                            <path d="M10.3988305,4.4185022 C12.1265865,6.14096916 14.8393249,4.67312775 15.2753007,2.6061674 C15.5659512,1.24317181 14.6939996,1.45286344 13.8704897,1.75242291 C12.8370656,2.14185022 11.4322546,3.05550661 10.3988305,4.4185022 Z" id="Shape" fill="#FFFFFF"></path>
                            <path d="M12.7886238,3.35506608 C12.7886238,3.80440529 12.9178018,4.20881057 13.1438634,4.55330396 C13.3699249,4.22378855 13.4991029,3.80440529 13.4991029,3.35506608 C13.4991029,2.90572687 13.3699249,2.50132159 13.1438634,2.15682819 C12.9178018,2.48634361 12.7886238,2.90572687 12.7886238,3.35506608 Z" id="Shape" fill="#2F273D"></path>
                        </g>
                        <path d="M1.64701974,22.2422907 C2.59970762,23.6202643 4.35975812,24.5488987 5.89374709,24.5488987 C6.37816466,24.5488987 6.83028773,24.4740088 7.21782178,24.339207 C7.21782178,24.339207 7.21782178,24.339207 7.21782178,24.339207 C4.79573394,24.9682819 4.10140209,20.5647577 5.45777128,17.8837004 C5.63539106,17.3744493 5.84530534,16.9400881 6.00677786,16.5656388 C6.07136687,16.430837 6.41045917,15.8017621 6.34587016,15.0977974 C6.21669214,13.7497797 4.08525483,12.5066079 2.4705296,14.2889868 C2.19602631,14.6035242 1.90537577,15.0229075 1.59857798,15.5920705 C0.645890092,17.4044053 0.258356037,20.2052863 1.64701974,22.2422907 Z" id="Shape" fill="#3D3952"></path>
                    </g>
                </g>
            </g>
        </g>
    </g>
</svg>