
<svg width="28px" height="28px" viewBox="0 0 128 128" version="1.1" xmlns="http://www.w3.org/2000/svg" xmlns:xlink="http://www.w3.org/1999/xlink">
    <!-- Generator: Sketch 51.2 (57519) - http://www.bohemiancoding.com/sketch -->
    <desc>Created with Sketch.</desc>
    <defs></defs>
    <g id="Symbols" stroke="none" stroke-width="1" fill="none" fill-rule="evenodd">
        <g id="if_Product_Hunt_1298713">
            <rect id="Rectangle-path" x="0" y="0" width="128" height="128"></rect>
            <path d="M72.532,44.8 L54.4,44.8 L54.4,64 L72.532,64 C77.836,64 82.132,59.7 82.132,54.4 C82.132,49.1 77.836,44.8 72.532,44.8 M64,0 C28.652,0 0,28.652 0,64 C0,99.348 28.652,128 64,128 C99.344,128 128,99.348 128,64 C128,28.652 99.344,0 64,0 M72.532,76.8 L54.4,76.8 L54.4,96 L41.6,96 L41.6,32 L72.532,32 C84.904,32 94.932,42.028 94.932,54.4 C94.932,66.772 84.904,76.8 72.532,76.8" id="Product_Hunt_1_" fill="#DE5425"></path>
        </g>
    </g>
</svg>