
<svg width="175px" height="103px" viewBox="0 0 175 103" version="1.1" xmlns="http://www.w3.org/2000/svg" xmlns:xlink="http://www.w3.org/1999/xlink">
    <!-- Generator: Sketch 51.2 (57519) - http://www.bohemiancoding.com/sketch -->
    <desc>Created with Sketch.</desc>
    <defs>
        <rect id="path-1" x="6" y="8" width="28" height="16" rx="4"></rect>
        <filter x="-7.1%" y="-37.5%" width="128.6%" height="150.0%" filterUnits="objectBoundingBox" id="filter-2">
            <feOffset dx="4" dy="-4" in="SourceAlpha" result="shadowOffsetOuter1"></feOffset>
            <feColorMatrix values="0 0 0 0 0   0 0 0 0 0   0 0 0 0 0  0 0 0 0.06 0" type="matrix" in="shadowOffsetOuter1"></feColorMatrix>
        </filter>
        <path d="M29.9007011,29.1777428 L29.9007011,39.1777428 C29.9007011,39.7300275 29.4529858,40.1777428 28.9007011,40.1777428 L20.3985241,40.1777428 C19.8462393,40.1777428 19.3985241,39.7300275 19.3985241,39.1777428 L19.3985241,29.1777428 L16,29.1777428 C15.4477153,29.1777428 15,28.7300275 15,28.1777428 C15,27.9827531 15.0570064,27.7920173 15.1640043,27.6290068 L23.8136169,14.4513769 C24.1166754,13.9896693 24.7366408,13.8610587 25.1983485,14.1641172 C25.3127478,14.2392072 25.4105182,14.3369777 25.4856083,14.4513769 L34.1352209,27.6290068 C34.4382794,28.0907145 34.3096688,28.71068 33.8479611,29.0137385 C33.6849506,29.1207363 33.4942148,29.1777428 33.2992252,29.1777428 L29.9007011,29.1777428 Z" id="path-3"></path>
        <filter x="-5.2%" y="-3.8%" width="110.4%" height="115.3%" filterUnits="objectBoundingBox" id="filter-4">
            <feOffset dx="0" dy="2" in="SourceAlpha" result="shadowOffsetOuter1"></feOffset>
            <feColorMatrix values="0 0 0 0 0.00527929305   0 0 0 0 0.0430976607   0 0 0 0 0.143946641  0 0 0 1 0" type="matrix" in="shadowOffsetOuter1"></feColorMatrix>
        </filter>
    </defs>
    <g id="Page-1" stroke="none" stroke-width="1" fill="none" fill-rule="evenodd">
        <g id="Group-2" fill-rule="nonzero">
            <g id="Group" transform="translate(50.000000, 27.000000)">
                <rect id="Rectangle-14" fill="#FFFFFF" x="0" y="0" width="125" height="76" rx="4"></rect>
                <g id="Rectangle-14">
                    <use fill="black" fill-opacity="1" filter="url(#filter-2)" xlink:href="#path-1"></use>
                    <use fill="#1CC5BC" xlink:href="#path-1"></use>
                </g>
                <rect id="Rectangle-14-Copy" fill="#B5BACA" opacity="0.440345982" x="49" y="8" width="28" height="16" rx="4"></rect>
                <rect id="Rectangle-14-Copy-2" fill="#514EFA" opacity="0.440345982" x="92" y="8" width="28" height="16" rx="4"></rect>
                <rect id="Rectangle-14-Copy-3" fill="#12D79A" opacity="0.287946429" x="49" y="31" width="28" height="16" rx="4"></rect>
                <rect id="Rectangle-14-Copy-6" fill="#FFCC54" opacity="0.167522321" x="49" y="54" width="28" height="16" rx="4"></rect>
                <rect id="Rectangle-14-Copy-5" fill="#B5BACA" opacity="0.287946429" x="92" y="31" width="28" height="16" rx="4"></rect>
                <rect id="Rectangle-14-Copy-7" fill="#E44646" opacity="0.167522321" x="92" y="54" width="28" height="16" rx="4"></rect>
                <rect id="Rectangle-14-Copy-4" fill="#B5BACA" opacity="0.287946429" x="6" y="31" width="28" height="16" rx="4"></rect>
                <rect id="Rectangle-14-Copy-8" fill="#6849FC" opacity="0.167522321" x="6" y="54" width="28" height="16" rx="4"></rect>
            </g>
            <g id="Cursor" transform="translate(71.000000, 43.000000)" fill="#1F346C">
                <path d="M17.5244211,19.9822893 C17.7278983,19.6391598 17.6906746,19.2060284 17.4315789,18.9019863 L1.67305263,0.333925652 C1.41642737,0.0323890447 0.997252224,-0.0782214271 0.623424272,0.0569533898 C0.249596319,0.192128207 0.000628238019,0.544336819 0,0.938895349 L0,25.4514408 C0.000539895713,25.8561333 0.262396117,26.2149967 0.649880593,26.3420759 C1.03736507,26.4691552 1.46337354,26.3358836 1.70715789,26.0113196 L5.94378947,20.3524105 L8.88252632,28.6885923 C9.25924268,29.7563093 10.4375349,30.3190467 11.5143158,29.9455013 C12.5910966,29.571956 13.158611,28.4035821 12.7818947,27.335865 L9.89810526,19.1575014 L16.5258947,20.4294408 C16.920788,20.506295 17.3214672,20.3268663 17.5244211,19.9822893 Z" id="Shape"></path>
            </g>
            <g id="Group-15">
                <path d="M10,0 L38,0 C43.5228475,-1.01453063e-15 48,4.4771525 48,10 L48,45 C48,50.5228475 43.5228475,55 38,55 L10,55 C4.4771525,55 4.22906743e-15,50.5228475 3.55271368e-15,45 L0,10 C-6.76353751e-16,4.4771525 4.4771525,1.01453063e-15 10,0 Z" id="Rectangle-8-Copy-4" fill="#1F346C" transform="translate(24.000000, 27.500000) scale(1, -1) translate(-24.000000, -27.500000) "></path>
                <g id="Combined-Shape-Copy" transform="translate(24.649669, 27.088871) scale(1, -1) translate(-24.649669, -27.088871) ">
                    <use fill="black" fill-opacity="1" filter="url(#filter-4)" xlink:href="#path-3"></use>
                    <use fill="#FFFFFF" xlink:href="#path-3"></use>
                </g>
            </g>
        </g>
    </g>
</svg>