<svg width="62px" height="69px" viewBox="0 0 62 69" version="1.1" xmlns="http://www.w3.org/2000/svg" xmlns:xlink="http://www.w3.org/1999/xlink">
    <!-- Generator: Sketch 51.2 (57519) - http://www.bohemiancoding.com/sketch -->
    <desc>Created with Sketch.</desc>
    <defs></defs>
    <g id="Page-1" stroke="none" stroke-width="1" fill="none" fill-rule="evenodd">
        <g id="component-page" transform="translate(-100.000000, -197.000000)" fill-rule="nonzero">
            <g id="Group-3" transform="translate(100.000000, 197.000000)">
                <g id="Logo">
                    <g id="logo_x2C__orange_x2C_">
                        <path d="M58.0640839,14.405475 L34.7889371,1.03773125 C33.6217762,0.36699375 32.3228112,0.0238625 31.0190769,0.00186875 L31.0190769,0.00071875 L31.0091049,0.00071875 L31.0091049,0.00186875 C29.6842311,0.0229697362 28.3866061,0.379469688 27.2386667,1.03773125 L3.96337529,14.4034625 C1.54602954,15.7920719 0.0569552003,18.3578099 0.0569417249,21.1344125 L0.0569417249,47.8657312 C0.0566825864,50.6421057 1.54588532,53.2076265 3.96337529,54.5955312 L27.2386667,67.9634187 C28.4068392,68.6330062 29.7047925,68.9761375 31.0091049,68.9991375 L31.0190769,68.9991375 C32.321655,68.9761375 33.6217762,68.6330062 34.7889371,67.9634187 L58.0640839,54.5966812 C60.4818344,53.2088665 61.9714811,50.6434352 61.9718182,47.8668812 L61.9718182,21.1344125 C61.9717677,18.3580076 60.4820027,15.7927013 58.0640839,14.405475 Z" id="Shape" fill="#F15836"></path>
                        <path d="M32.6667739,26.2133875 C31.6991981,26.2133875 30.908662,26.9963938 30.908662,27.9589438 L30.908662,38.3688875 C30.908662,42.464325 27.560951,45.7852375 23.4396131,45.7852375 C19.3174079,45.7852375 15.9659394,42.4601563 15.9659394,38.3688875 L15.9659394,34.0119688 L21.6810676,34.0119688 L21.6810676,38.3688875 C21.6810676,39.3356063 22.4714592,40.1144438 23.4396131,40.1144438 C24.4071888,40.1144438 25.1933893,39.3356063 25.1933893,38.3688875 L25.1933893,27.9589437 C25.1933893,23.867675 28.5448578,20.5414437 32.6666294,20.5414437 C36.7884009,20.5414437 40.1397249,23.867675 40.1397249,27.9589437 L40.1397249,29.9406812 L36.6996643,31.03965 L34.4214172,29.9406812 L34.4214172,27.9589437 C34.4217063,26.9963937 33.6344942,26.2133875 32.6667739,26.2133875 Z M41.8948019,45.7852375 C37.7730303,45.7852375 34.4217063,42.4601562 34.4217063,38.3688875 L34.4217063,33.92385 L36.6999534,35.01865 L40.140014,33.92385 L40.140014,38.3688875 C40.140014,39.3356063 40.9260699,40.1144438 41.8949464,40.1144438 C42.8625221,40.1144438 43.6487226,39.3356062 43.6487226,38.3688875 L43.6487226,34.0119687 L49.3638508,34.0119687 L49.3638508,38.3688875 L49.368042,38.3688875 C49.3678974,42.464325 46.0122378,45.7852375 41.8948019,45.7852375 Z" id="Shape" fill="#FFFFFF"></path>
                    </g>
                </g>
            </g>
        </g>
    </g>
</svg>