<svg width="1440px" height="896px" viewBox="0 0 1440 896" version="1.1" xmlns="http://www.w3.org/2000/svg" xmlns:xlink="http://www.w3.org/1999/xlink">
    <defs>
        <path d="M712.146469,-186.294382 C710.706484,-186.294382 709.539146,-187.462466 709.539146,-188.903371 C709.539146,-190.344275 710.706484,-191.51236 712.146469,-191.51236 C713.586454,-191.51236 714.753792,-190.344275 714.753792,-188.903371 C714.753792,-187.462466 713.586454,-186.294382 712.146469,-186.294382 Z M1160.6061,-248.910112 C1159.16612,-248.910112 1157.99878,-250.078196 1157.99878,-251.519101 C1157.99878,-252.960006 1159.16612,-254.12809 1160.6061,-254.12809 C1162.04609,-254.12809 1163.21343,-252.960006 1163.21343,-251.519101 C1163.21343,-250.078196 1162.04609,-248.910112 1160.6061,-248.910112 Z M1418.73112,497.260674 C1417.29114,497.260674 1416.1238,496.09259 1416.1238,494.651685 C1416.1238,493.210781 1417.29114,492.042697 1418.73112,492.042697 C1420.17111,492.042697 1421.33845,493.210781 1421.33845,494.651685 C1421.33845,496.09259 1420.17111,497.260674 1418.73112,497.260674 Z M1374.40663,886 C1372.96664,886 1371.7993,884.831916 1371.7993,883.391011 C1371.7993,881.950107 1372.96664,880.782022 1374.40663,880.782022 C1375.84661,880.782022 1377.01395,881.950107 1377.01395,883.391011 C1377.01395,884.831916 1375.84661,886 1374.40663,886 Z M1457.84098,-100.197753 C1456.40099,-100.197753 1455.23365,-101.365837 1455.23365,-102.806742 C1455.23365,-104.247646 1456.40099,-105.41573 1457.84098,-105.41573 C1459.28096,-105.41573 1460.4483,-104.247646 1460.4483,-102.806742 C1460.4483,-101.365837 1459.28096,-100.197753 1457.84098,-100.197753 Z M1267.50636,518.132584 C1266.06638,518.132584 1264.89904,516.9645 1264.89904,515.523596 C1264.89904,514.082691 1266.06638,512.914607 1267.50636,512.914607 C1268.94635,512.914607 1270.11369,514.082691 1270.11369,515.523596 C1270.11369,516.9645 1268.94635,518.132584 1267.50636,518.132584 Z M1483.91421,345.939326 C1482.47423,345.939326 1481.30689,344.771242 1481.30689,343.330337 C1481.30689,341.889432 1482.47423,340.721348 1483.91421,340.721348 C1485.3542,340.721348 1486.52153,341.889432 1486.52153,343.330337 C1486.52153,344.771242 1485.3542,345.939326 1483.91421,345.939326 Z M1071.95711,844.25618 C1070.51712,844.25618 1069.34978,843.088096 1069.34978,841.647191 C1069.34978,840.206286 1070.51712,839.038202 1071.95711,839.038202 C1073.39709,839.038202 1074.56443,840.206286 1074.56443,841.647191 C1074.56443,843.088096 1073.39709,844.25618 1071.95711,844.25618 Z M712.146469,596.402247 C710.706484,596.402247 709.539146,595.234163 709.539146,593.793258 C709.539146,592.352354 710.706484,591.18427 712.146469,591.18427 C713.586454,591.18427 714.753792,592.352354 714.753792,593.793258 C714.753792,595.234163 713.586454,596.402247 712.146469,596.402247 Z M678.251264,278.105618 C676.811279,278.105618 675.643941,276.937534 675.643941,275.496629 C675.643941,274.055725 676.811279,272.88764 678.251264,272.88764 C679.691249,272.88764 680.858588,274.055725 680.858588,275.496629 C680.858588,276.937534 679.691249,278.105618 678.251264,278.105618 Z M850.334612,405.946067 C848.894627,405.946067 847.727289,404.777983 847.727289,403.337079 C847.727289,401.896174 848.894627,400.72809 850.334612,400.72809 C851.774597,400.72809 852.941935,401.896174 852.941935,403.337079 C852.941935,404.777983 851.774597,405.946067 850.334612,405.946067 Z M1231.00384,351.157303 C1229.56385,351.157303 1228.39651,349.989219 1228.39651,348.548315 C1228.39651,347.10741 1229.56385,345.939326 1231.00384,345.939326 C1232.44382,345.939326 1233.61116,347.10741 1233.61116,348.548315 C1233.61116,349.989219 1232.44382,351.157303 1231.00384,351.157303 Z M936.376286,168.52809 C934.936301,168.52809 933.768962,167.360006 933.768962,165.919101 C933.768962,164.478196 934.936301,163.310112 936.376286,163.310112 C937.816271,163.310112 938.983609,164.478196 938.983609,165.919101 C938.983609,167.360006 937.816271,168.52809 936.376286,168.52809 Z M764.292938,238.970787 C762.852953,238.970787 761.685615,237.802702 761.685615,236.361798 C761.685615,234.920893 762.852953,233.752809 764.292938,233.752809 C765.732923,233.752809 766.900262,234.920893 766.900262,236.361798 C766.900262,237.802702 765.732923,238.970787 764.292938,238.970787 Z M1223.18187,-37.5820225 C1221.74188,-37.5820225 1220.57454,-38.7501065 1220.57454,-40.1910112 C1220.57454,-41.6319159 1221.74188,-42.8 1223.18187,-42.8 C1224.62185,-42.8 1225.78919,-41.6319159 1225.78919,-40.1910112 C1225.78919,-38.7501065 1224.62185,-37.5820225 1223.18187,-37.5820225 Z M996.344725,272.88764 C994.90474,272.88764 993.737402,271.719556 993.737402,270.278652 C993.737402,268.837747 994.90474,267.669663 996.344725,267.669663 C997.78471,267.669663 998.952049,268.837747 998.952049,270.278652 C998.952049,271.719556 997.78471,272.88764 996.344725,272.88764 Z M850.334612,249.406742 C848.894627,249.406742 847.727289,248.238658 847.727289,246.797753 C847.727289,245.356848 848.894627,244.188764 850.334612,244.188764 C851.774597,244.188764 852.941935,245.356848 852.941935,246.797753 C852.941935,248.238658 851.774597,249.406742 850.334612,249.406742 Z M1452.62633,244.188764 C1451.18634,244.188764 1450.01901,243.02068 1450.01901,241.579775 C1450.01901,240.138871 1451.18634,238.970787 1452.62633,238.970787 C1454.06631,238.970787 1455.23365,240.138871 1455.23365,241.579775 C1455.23365,243.02068 1454.06631,244.188764 1452.62633,244.188764 Z M1160.6061,726.851685 C1159.16612,726.851685 1157.99878,725.683601 1157.99878,724.242697 C1157.99878,722.801792 1159.16612,721.633708 1160.6061,721.633708 C1162.04609,721.633708 1163.21343,722.801792 1163.21343,724.242697 C1163.21343,725.683601 1162.04609,726.851685 1160.6061,726.851685 Z M1028.93627,-188.903371 C1028.21628,-188.903371 1027.63261,-189.487413 1027.63261,-190.207865 C1027.63261,-190.928318 1028.21628,-191.51236 1028.93627,-191.51236 C1029.65626,-191.51236 1030.23993,-190.928318 1030.23993,-190.207865 C1030.23993,-189.487413 1029.65626,-188.903371 1028.93627,-188.903371 Z M1206.23426,-186.294382 C1205.51427,-186.294382 1204.9306,-186.878424 1204.9306,-187.598876 C1204.9306,-188.319329 1205.51427,-188.903371 1206.23426,-188.903371 C1206.95426,-188.903371 1207.53792,-188.319329 1207.53792,-187.598876 C1207.53792,-186.878424 1206.95426,-186.294382 1206.23426,-186.294382 Z M1422.64211,-241.083146 C1421.92212,-241.083146 1421.33845,-241.667188 1421.33845,-242.38764 C1421.33845,-243.108093 1421.92212,-243.692135 1422.64211,-243.692135 C1423.3621,-243.692135 1423.94577,-243.108093 1423.94577,-242.38764 C1423.94577,-241.667188 1423.3621,-241.083146 1422.64211,-241.083146 Z M1378.31761,-131.505618 C1377.59762,-131.505618 1377.01395,-132.08966 1377.01395,-132.810112 C1377.01395,-133.530565 1377.59762,-134.114607 1378.31761,-134.114607 C1379.0376,-134.114607 1379.62127,-133.530565 1379.62127,-132.810112 C1379.62127,-132.08966 1379.0376,-131.505618 1378.31761,-131.505618 Z M1472.18126,-162.813483 C1471.46126,-162.813483 1470.87759,-163.397525 1470.87759,-164.117978 C1470.87759,-164.83843 1471.46126,-165.422472 1472.18126,-165.422472 C1472.90125,-165.422472 1473.48492,-164.83843 1473.48492,-164.117978 C1473.48492,-163.397525 1472.90125,-162.813483 1472.18126,-162.813483 Z M1357.45902,-230.647191 C1356.73903,-230.647191 1356.15536,-231.231233 1356.15536,-231.951685 C1356.15536,-232.672138 1356.73903,-233.25618 1357.45902,-233.25618 C1358.17902,-233.25618 1358.76269,-232.672138 1358.76269,-231.951685 C1358.76269,-231.231233 1358.17902,-230.647191 1357.45902,-230.647191 Z M1206.23426,-102.806742 C1205.51427,-102.806742 1204.9306,-103.390784 1204.9306,-104.111236 C1204.9306,-104.831688 1205.51427,-105.41573 1206.23426,-105.41573 C1206.95426,-105.41573 1207.53792,-104.831688 1207.53792,-104.111236 C1207.53792,-103.390784 1206.95426,-102.806742 1206.23426,-102.806742 Z M1401.78352,11.988764 C1401.06353,11.988764 1400.47986,11.404722 1400.47986,10.6842697 C1400.47986,9.96381731 1401.06353,9.37977528 1401.78352,9.37977528 C1402.50351,9.37977528 1403.08718,9.96381731 1403.08718,10.6842697 C1403.08718,11.404722 1402.50351,11.988764 1401.78352,11.988764 Z M982.004446,499.869663 C981.284454,499.869663 980.700785,499.285621 980.700785,498.565169 C980.700785,497.844716 981.284454,497.260674 982.004446,497.260674 C982.724439,497.260674 983.308108,497.844716 983.308108,498.565169 C983.308108,499.285621 982.724439,499.869663 982.004446,499.869663 Z M1122.79991,56.341573 C1122.07992,56.341573 1121.49625,55.757531 1121.49625,55.0370787 C1121.49625,54.3166263 1122.07992,53.7325843 1122.79991,53.7325843 C1123.51991,53.7325843 1124.10357,54.3166263 1124.10357,55.0370787 C1124.10357,55.757531 1123.51991,56.341573 1122.79991,56.341573 Z M1440.89337,147.65618 C1440.17338,147.65618 1439.58971,147.072138 1439.58971,146.351685 C1439.58971,145.631233 1440.17338,145.047191 1440.89337,145.047191 C1441.61337,145.047191 1442.19704,145.631233 1442.19704,146.351685 C1442.19704,147.072138 1441.61337,147.65618 1440.89337,147.65618 Z M817.743069,118.957303 C817.023076,118.957303 816.439407,118.373261 816.439407,117.652809 C816.439407,116.932357 817.023076,116.348315 817.743069,116.348315 C818.463061,116.348315 819.046731,116.932357 819.046731,117.652809 C819.046731,118.373261 818.463061,118.957303 817.743069,118.957303 Z M1336.60044,353.766292 C1335.88044,353.766292 1335.29677,353.18225 1335.29677,352.461798 C1335.29677,351.741345 1335.88044,351.157303 1336.60044,351.157303 C1337.32043,351.157303 1337.9041,351.741345 1337.9041,352.461798 C1337.9041,353.18225 1337.32043,353.766292 1336.60044,353.766292 Z M1227.09285,541.613483 C1226.37286,541.613483 1225.78919,541.029441 1225.78919,540.308989 C1225.78919,539.588536 1226.37286,539.004494 1227.09285,539.004494 C1227.81284,539.004494 1228.39651,539.588536 1228.39651,540.308989 C1228.39651,541.029441 1227.81284,541.613483 1227.09285,541.613483 Z M1414.82014,721.633708 C1414.10015,721.633708 1413.51648,721.049666 1413.51648,720.329213 C1413.51648,719.608761 1414.10015,719.024719 1414.82014,719.024719 C1415.54013,719.024719 1416.1238,719.608761 1416.1238,720.329213 C1416.1238,721.049666 1415.54013,721.633708 1414.82014,721.633708 Z M1229.70017,823.38427 C1228.98018,823.38427 1228.39651,822.800228 1228.39651,822.079775 C1228.39651,821.359323 1228.98018,820.775281 1229.70017,820.775281 C1230.42017,820.775281 1231.00384,821.359323 1231.00384,822.079775 C1231.00384,822.800228 1230.42017,823.38427 1229.70017,823.38427 Z M674.340279,703.370787 C673.620286,703.370787 673.036617,702.786744 673.036617,702.066292 C673.036617,701.34584 673.620286,700.761798 674.340279,700.761798 C675.060271,700.761798 675.643941,701.34584 675.643941,702.066292 C675.643941,702.786744 675.060271,703.370787 674.340279,703.370787 Z M768.203923,455.516854 C767.483931,455.516854 766.900262,454.932812 766.900262,454.21236 C766.900262,453.491907 767.483931,452.907865 768.203923,452.907865 C768.923916,452.907865 769.507585,453.491907 769.507585,454.21236 C769.507585,454.932812 768.923916,455.516854 768.203923,455.516854 Z M997.648387,825.993258 C996.928395,825.993258 996.344725,825.409216 996.344725,824.688764 C996.344725,823.968312 996.928395,823.38427 997.648387,823.38427 C998.36838,823.38427 998.952049,823.968312 998.952049,824.688764 C998.952049,825.409216 998.36838,825.993258 997.648387,825.993258 Z M869.889538,739.896629 C869.169545,739.896629 868.585876,739.312587 868.585876,738.592135 C868.585876,737.871682 869.169545,737.28764 869.889538,737.28764 C870.60953,737.28764 871.1932,737.871682 871.1932,738.592135 C871.1932,739.312587 870.60953,739.896629 869.889538,739.896629 Z M1021.1143,606.838202 C1020.39431,606.838202 1019.81064,606.25416 1019.81064,605.533708 C1019.81064,604.813256 1020.39431,604.229213 1021.1143,604.229213 C1021.83429,604.229213 1022.41796,604.813256 1022.41796,605.533708 C1022.41796,606.25416 1021.83429,606.838202 1021.1143,606.838202 Z M796.884481,599.011236 C796.164489,599.011236 795.58082,598.427194 795.58082,597.706742 C795.58082,596.986289 796.164489,596.402247 796.884481,596.402247 C797.604474,596.402247 798.188143,596.986289 798.188143,597.706742 C798.188143,598.427194 797.604474,599.011236 796.884481,599.011236 Z M661.303662,539.004494 C660.583669,539.004494 660,538.420452 660,537.7 C660,536.979548 660.583669,536.395506 661.303662,536.395506 C662.023654,536.395506 662.607323,536.979548 662.607323,537.7 C662.607323,538.420452 662.023654,539.004494 661.303662,539.004494 Z M734.308718,765.986517 C733.588726,765.986517 733.005057,765.402475 733.005057,764.682022 C733.005057,763.96157 733.588726,763.377528 734.308718,763.377528 C735.028711,763.377528 735.61238,763.96157 735.61238,764.682022 C735.61238,765.402475 735.028711,765.986517 734.308718,765.986517 Z M984.61177,-139.332584 C983.891777,-139.332584 983.308108,-139.916626 983.308108,-140.637079 C983.308108,-141.357531 983.891777,-141.941573 984.61177,-141.941573 C985.331762,-141.941573 985.915432,-141.357531 985.915432,-140.637079 C985.915432,-139.916626 985.331762,-139.332584 984.61177,-139.332584 Z M820.350392,-118.460674 C819.6304,-118.460674 819.046731,-119.044716 819.046731,-119.765169 C819.046731,-120.485621 819.6304,-121.069663 820.350392,-121.069663 C821.070385,-121.069663 821.654054,-120.485621 821.654054,-119.765169 C821.654054,-119.044716 821.070385,-118.460674 820.350392,-118.460674 Z M700.413514,27.6426966 C699.693521,27.6426966 699.109852,27.0586546 699.109852,26.3382022 C699.109852,25.6177499 699.693521,25.0337079 700.413514,25.0337079 C701.133506,25.0337079 701.717175,25.6177499 701.717175,26.3382022 C701.717175,27.0586546 701.133506,27.6426966 700.413514,27.6426966 Z M1047.18753,-272.391011 C1046.46754,-272.391011 1045.88387,-272.975053 1045.88387,-273.695506 C1045.88387,-274.415958 1046.46754,-275 1047.18753,-275 C1047.90753,-275 1048.49119,-274.415958 1048.49119,-273.695506 C1048.49119,-272.975053 1047.90753,-272.391011 1047.18753,-272.391011 Z M730.397733,452.907865 C728.957748,452.907865 727.79041,451.739781 727.79041,450.298876 C727.79041,448.857972 728.957748,447.689888 730.397733,447.689888 C731.837718,447.689888 733.005057,448.857972 733.005057,450.298876 C733.005057,451.739781 731.837718,452.907865 730.397733,452.907865 Z M824.261377,726.851685 C822.821392,726.851685 821.654054,725.683601 821.654054,724.242697 C821.654054,722.801792 822.821392,721.633708 824.261377,721.633708 C825.701362,721.633708 826.868701,722.801792 826.868701,724.242697 C826.868701,725.683601 825.701362,726.851685 824.261377,726.851685 Z M738.219704,880.782022 C736.779719,880.782022 735.61238,879.613938 735.61238,878.173034 C735.61238,876.732129 736.779719,875.564045 738.219704,875.564045 C739.659689,875.564045 740.827027,876.732129 740.827027,878.173034 C740.827027,879.613938 739.659689,880.782022 738.219704,880.782022 Z M678.251264,-139.332584 C676.811279,-139.332584 675.643941,-140.500668 675.643941,-141.941573 C675.643941,-143.382478 676.811279,-144.550562 678.251264,-144.550562 C679.691249,-144.550562 680.858588,-143.382478 680.858588,-141.941573 C680.858588,-140.500668 679.691249,-139.332584 678.251264,-139.332584 Z M1121.49625,-113.242697 C1120.05627,-113.242697 1118.88893,-114.410781 1118.88893,-115.851685 C1118.88893,-117.29259 1120.05627,-118.460674 1121.49625,-118.460674 C1122.93624,-118.460674 1124.10357,-117.29259 1124.10357,-115.851685 C1124.10357,-114.410781 1122.93624,-113.242697 1121.49625,-113.242697 Z M1311.83086,116.348315 C1310.39088,116.348315 1309.22354,115.180231 1309.22354,113.739326 C1309.22354,112.298421 1310.39088,111.130337 1311.83086,111.130337 C1313.27085,111.130337 1314.43819,112.298421 1314.43819,113.739326 C1314.43819,115.180231 1313.27085,116.348315 1311.83086,116.348315 Z M1356.15536,512.914607 C1354.71538,512.914607 1353.54804,511.746523 1353.54804,510.305618 C1353.54804,508.864713 1354.71538,507.696629 1356.15536,507.696629 C1357.59535,507.696629 1358.76269,508.864713 1358.76269,510.305618 C1358.76269,511.746523 1357.59535,512.914607 1356.15536,512.914607 Z M17.146469,-186.294382 C15.7064841,-186.294382 14.5391456,-187.462466 14.5391456,-188.903371 C14.5391456,-190.344275 15.7064841,-191.51236 17.146469,-191.51236 C18.586454,-191.51236 19.7537925,-190.344275 19.7537925,-188.903371 C19.7537925,-187.462466 18.586454,-186.294382 17.146469,-186.294382 Z M465.606103,-248.910112 C464.166118,-248.910112 462.998779,-250.078196 462.998779,-251.519101 C462.998779,-252.960006 464.166118,-254.12809 465.606103,-254.12809 C467.046088,-254.12809 468.213426,-252.960006 468.213426,-251.519101 C468.213426,-250.078196 467.046088,-248.910112 465.606103,-248.910112 Z M723.731125,497.260674 C722.29114,497.260674 721.123801,496.09259 721.123801,494.651685 C721.123801,493.210781 722.29114,492.042697 723.731125,492.042697 C725.17111,492.042697 726.338448,493.210781 726.338448,494.651685 C726.338448,496.09259 725.17111,497.260674 723.731125,497.260674 Z M679.406626,886 C677.966641,886 676.799302,884.831916 676.799302,883.391011 C676.799302,881.950107 677.966641,880.782022 679.406626,880.782022 C680.846611,880.782022 682.013949,881.950107 682.013949,883.391011 C682.013949,884.831916 680.846611,886 679.406626,886 Z M762.840976,-100.197753 C761.400991,-100.197753 760.233653,-101.365837 760.233653,-102.806742 C760.233653,-104.247646 761.400991,-105.41573 762.840976,-105.41573 C764.280961,-105.41573 765.4483,-104.247646 765.4483,-102.806742 C765.4483,-101.365837 764.280961,-100.197753 762.840976,-100.197753 Z M572.506364,518.132584 C571.066379,518.132584 569.899041,516.9645 569.899041,515.523596 C569.899041,514.082691 571.066379,512.914607 572.506364,512.914607 C573.946349,512.914607 575.113688,514.082691 575.113688,515.523596 C575.113688,516.9645 573.946349,518.132584 572.506364,518.132584 Z M788.914211,345.939326 C787.474226,345.939326 786.306887,344.771242 786.306887,343.330337 C786.306887,341.889432 787.474226,340.721348 788.914211,340.721348 C790.354196,340.721348 791.521534,341.889432 791.521534,343.330337 C791.521534,344.771242 790.354196,345.939326 788.914211,345.939326 Z M376.957105,844.25618 C375.51712,844.25618 374.349782,843.088096 374.349782,841.647191 C374.349782,840.206286 375.51712,839.038202 376.957105,839.038202 C378.39709,839.038202 379.564429,840.206286 379.564429,841.647191 C379.564429,843.088096 378.39709,844.25618 376.957105,844.25618 Z M17.146469,596.402247 C15.7064841,596.402247 14.5391456,595.234163 14.5391456,593.793258 C14.5391456,592.352354 15.7064841,591.18427 17.146469,591.18427 C18.586454,591.18427 19.7537925,592.352354 19.7537925,593.793258 C19.7537925,595.234163 18.586454,596.402247 17.146469,596.402247 Z M-16.7487358,278.105618 C-18.1887208,278.105618 -19.3560593,276.937534 -19.3560593,275.496629 C-19.3560593,274.055725 -18.1887208,272.88764 -16.7487358,272.88764 C-15.3087509,272.88764 -14.1414124,274.055725 -14.1414124,275.496629 C-14.1414124,276.937534 -15.3087509,278.105618 -16.7487358,278.105618 Z M155.334612,405.946067 C153.894627,405.946067 152.727289,404.777983 152.727289,403.337079 C152.727289,401.896174 153.894627,400.72809 155.334612,400.72809 C156.774597,400.72809 157.941935,401.896174 157.941935,403.337079 C157.941935,404.777983 156.774597,405.946067 155.334612,405.946067 Z M536.003836,351.157303 C534.563851,351.157303 533.396513,349.989219 533.396513,348.548315 C533.396513,347.10741 534.563851,345.939326 536.003836,345.939326 C537.443821,345.939326 538.611159,347.10741 538.611159,348.548315 C538.611159,349.989219 537.443821,351.157303 536.003836,351.157303 Z M241.376286,168.52809 C239.936301,168.52809 238.768962,167.360006 238.768962,165.919101 C238.768962,164.478196 239.936301,163.310112 241.376286,163.310112 C242.816271,163.310112 243.983609,164.478196 243.983609,165.919101 C243.983609,167.360006 242.816271,168.52809 241.376286,168.52809 Z M69.2929381,238.970787 C67.8529531,238.970787 66.6856146,237.802702 66.6856146,236.361798 C66.6856146,234.920893 67.8529531,233.752809 69.2929381,233.752809 C70.7329231,233.752809 71.9002615,234.920893 71.9002615,236.361798 C71.9002615,237.802702 70.7329231,238.970787 69.2929381,238.970787 Z M528.181866,-37.5820225 C526.741881,-37.5820225 525.574542,-38.7501065 525.574542,-40.1910112 C525.574542,-41.6319159 526.741881,-42.8 528.181866,-42.8 C529.621851,-42.8 530.789189,-41.6319159 530.789189,-40.1910112 C530.789189,-38.7501065 529.621851,-37.5820225 528.181866,-37.5820225 Z M301.344725,272.88764 C299.90474,272.88764 298.737402,271.719556 298.737402,270.278652 C298.737402,268.837747 299.90474,267.669663 301.344725,267.669663 C302.78471,267.669663 303.952049,268.837747 303.952049,270.278652 C303.952049,271.719556 302.78471,272.88764 301.344725,272.88764 Z M155.334612,249.406742 C153.894627,249.406742 152.727289,248.238658 152.727289,246.797753 C152.727289,245.356848 153.894627,244.188764 155.334612,244.188764 C156.774597,244.188764 157.941935,245.356848 157.941935,246.797753 C157.941935,248.238658 156.774597,249.406742 155.334612,249.406742 Z M757.626329,244.188764 C756.186344,244.188764 755.019006,243.02068 755.019006,241.579775 C755.019006,240.138871 756.186344,238.970787 757.626329,238.970787 C759.066314,238.970787 760.233653,240.138871 760.233653,241.579775 C760.233653,243.02068 759.066314,244.188764 757.626329,244.188764 Z M465.606103,726.851685 C464.166118,726.851685 462.998779,725.683601 462.998779,724.242697 C462.998779,722.801792 464.166118,721.633708 465.606103,721.633708 C467.046088,721.633708 468.213426,722.801792 468.213426,724.242697 C468.213426,725.683601 467.046088,726.851685 465.606103,726.851685 Z M333.936268,-188.903371 C333.216276,-188.903371 332.632607,-189.487413 332.632607,-190.207865 C332.632607,-190.928318 333.216276,-191.51236 333.936268,-191.51236 C334.656261,-191.51236 335.23993,-190.928318 335.23993,-190.207865 C335.23993,-189.487413 334.656261,-188.903371 333.936268,-188.903371 Z M511.234263,-186.294382 C510.514271,-186.294382 509.930601,-186.878424 509.930601,-187.598876 C509.930601,-188.319329 510.514271,-188.903371 511.234263,-188.903371 C511.954256,-188.903371 512.537925,-188.319329 512.537925,-187.598876 C512.537925,-186.878424 511.954256,-186.294382 511.234263,-186.294382 Z M727.64211,-241.083146 C726.922117,-241.083146 726.338448,-241.667188 726.338448,-242.38764 C726.338448,-243.108093 726.922117,-243.692135 727.64211,-243.692135 C728.362102,-243.692135 728.945771,-243.108093 728.945771,-242.38764 C728.945771,-241.667188 728.362102,-241.083146 727.64211,-241.083146 Z M683.317611,-131.505618 C682.597619,-131.505618 682.013949,-132.08966 682.013949,-132.810112 C682.013949,-133.530565 682.597619,-134.114607 683.317611,-134.114607 C684.037604,-134.114607 684.621273,-133.530565 684.621273,-132.810112 C684.621273,-132.08966 684.037604,-131.505618 683.317611,-131.505618 Z M777.181255,-162.813483 C776.461263,-162.813483 775.877594,-163.397525 775.877594,-164.117978 C775.877594,-164.83843 776.461263,-165.422472 777.181255,-165.422472 C777.901248,-165.422472 778.484917,-164.83843 778.484917,-164.117978 C778.484917,-163.397525 777.901248,-162.813483 777.181255,-162.813483 Z M662.459023,-230.647191 C661.739031,-230.647191 661.155362,-231.231233 661.155362,-231.951685 C661.155362,-232.672138 661.739031,-233.25618 662.459023,-233.25618 C663.179016,-233.25618 663.762685,-232.672138 663.762685,-231.951685 C663.762685,-231.231233 663.179016,-230.647191 662.459023,-230.647191 Z M511.234263,-102.806742 C510.514271,-102.806742 509.930601,-103.390784 509.930601,-104.111236 C509.930601,-104.831688 510.514271,-105.41573 511.234263,-105.41573 C511.954256,-105.41573 512.537925,-104.831688 512.537925,-104.111236 C512.537925,-103.390784 511.954256,-102.806742 511.234263,-102.806742 Z M706.783522,11.988764 C706.06353,11.988764 705.47986,11.404722 705.47986,10.6842697 C705.47986,9.96381731 706.06353,9.37977528 706.783522,9.37977528 C707.503515,9.37977528 708.087184,9.96381731 708.087184,10.6842697 C708.087184,11.404722 707.503515,11.988764 706.783522,11.988764 Z M287.004446,499.869663 C286.284454,499.869663 285.700785,499.285621 285.700785,498.565169 C285.700785,497.844716 286.284454,497.260674 287.004446,497.260674 C287.724439,497.260674 288.308108,497.844716 288.308108,498.565169 C288.308108,499.285621 287.724439,499.869663 287.004446,499.869663 Z M427.799913,56.341573 C427.07992,56.341573 426.496251,55.757531 426.496251,55.0370787 C426.496251,54.3166263 427.07992,53.7325843 427.799913,53.7325843 C428.519905,53.7325843 429.103574,54.3166263 429.103574,55.0370787 C429.103574,55.757531 428.519905,56.341573 427.799913,56.341573 Z M745.893374,147.65618 C745.173381,147.65618 744.589712,147.072138 744.589712,146.351685 C744.589712,145.631233 745.173381,145.047191 745.893374,145.047191 C746.613366,145.047191 747.197036,145.631233 747.197036,146.351685 C747.197036,147.072138 746.613366,147.65618 745.893374,147.65618 Z M122.743069,118.957303 C122.023076,118.957303 121.439407,118.373261 121.439407,117.652809 C121.439407,116.932357 122.023076,116.348315 122.743069,116.348315 C123.463061,116.348315 124.046731,116.932357 124.046731,117.652809 C124.046731,118.373261 123.463061,118.957303 122.743069,118.957303 Z M641.600436,353.766292 C640.880443,353.766292 640.296774,353.18225 640.296774,352.461798 C640.296774,351.741345 640.880443,351.157303 641.600436,351.157303 C642.320428,351.157303 642.904098,351.741345 642.904098,352.461798 C642.904098,353.18225 642.320428,353.766292 641.600436,353.766292 Z M532.092851,541.613483 C531.372858,541.613483 530.789189,541.029441 530.789189,540.308989 C530.789189,539.588536 531.372858,539.004494 532.092851,539.004494 C532.812843,539.004494 533.396513,539.588536 533.396513,540.308989 C533.396513,541.029441 532.812843,541.613483 532.092851,541.613483 Z M719.820139,721.633708 C719.100147,721.633708 718.516478,721.049666 718.516478,720.329213 C718.516478,719.608761 719.100147,719.024719 719.820139,719.024719 C720.540132,719.024719 721.123801,719.608761 721.123801,720.329213 C721.123801,721.049666 720.540132,721.633708 719.820139,721.633708 Z M534.700174,823.38427 C533.980182,823.38427 533.396513,822.800228 533.396513,822.079775 C533.396513,821.359323 533.980182,820.775281 534.700174,820.775281 C535.420167,820.775281 536.003836,821.359323 536.003836,822.079775 C536.003836,822.800228 535.420167,823.38427 534.700174,823.38427 Z M-20.659721,703.370787 C-21.3797135,703.370787 -21.9633827,702.786744 -21.9633827,702.066292 C-21.9633827,701.34584 -21.3797135,700.761798 -20.659721,700.761798 C-19.9397285,700.761798 -19.3560593,701.34584 -19.3560593,702.066292 C-19.3560593,702.786744 -19.9397285,703.370787 -20.659721,703.370787 Z M73.2039233,455.516854 C72.4839308,455.516854 71.9002615,454.932812 71.9002615,454.21236 C71.9002615,453.491907 72.4839308,452.907865 73.2039233,452.907865 C73.9239158,452.907865 74.507585,453.491907 74.507585,454.21236 C74.507585,454.932812 73.9239158,455.516854 73.2039233,455.516854 Z M302.648387,825.993258 C301.928395,825.993258 301.344725,825.409216 301.344725,824.688764 C301.344725,823.968312 301.928395,823.38427 302.648387,823.38427 C303.36838,823.38427 303.952049,823.968312 303.952049,824.688764 C303.952049,825.409216 303.36838,825.993258 302.648387,825.993258 Z M174.889538,739.896629 C174.169545,739.896629 173.585876,739.312587 173.585876,738.592135 C173.585876,737.871682 174.169545,737.28764 174.889538,737.28764 C175.60953,737.28764 176.1932,737.871682 176.1932,738.592135 C176.1932,739.312587 175.60953,739.896629 174.889538,739.896629 Z M326.114298,606.838202 C325.394306,606.838202 324.810636,606.25416 324.810636,605.533708 C324.810636,604.813256 325.394306,604.229213 326.114298,604.229213 C326.834291,604.229213 327.41796,604.813256 327.41796,605.533708 C327.41796,606.25416 326.834291,606.838202 326.114298,606.838202 Z M101.884481,599.011236 C101.164489,599.011236 100.58082,598.427194 100.58082,597.706742 C100.58082,596.986289 101.164489,596.402247 101.884481,596.402247 C102.604474,596.402247 103.188143,596.986289 103.188143,597.706742 C103.188143,598.427194 102.604474,599.011236 101.884481,599.011236 Z M-33.6963383,539.004494 C-34.4163308,539.004494 -35,538.420452 -35,537.7 C-35,536.979548 -34.4163308,536.395506 -33.6963383,536.395506 C-32.9763458,536.395506 -32.3926765,536.979548 -32.3926765,537.7 C-32.3926765,538.420452 -32.9763458,539.004494 -33.6963383,539.004494 Z M39.3087184,765.986517 C38.5887259,765.986517 38.0050567,765.402475 38.0050567,764.682022 C38.0050567,763.96157 38.5887259,763.377528 39.3087184,763.377528 C40.0287109,763.377528 40.6123801,763.96157 40.6123801,764.682022 C40.6123801,765.402475 40.0287109,765.986517 39.3087184,765.986517 Z M289.61177,-139.332584 C288.891777,-139.332584 288.308108,-139.916626 288.308108,-140.637079 C288.308108,-141.357531 288.891777,-141.941573 289.61177,-141.941573 C290.331762,-141.941573 290.915432,-141.357531 290.915432,-140.637079 C290.915432,-139.916626 290.331762,-139.332584 289.61177,-139.332584 Z M125.350392,-118.460674 C124.6304,-118.460674 124.046731,-119.044716 124.046731,-119.765169 C124.046731,-120.485621 124.6304,-121.069663 125.350392,-121.069663 C126.070385,-121.069663 126.654054,-120.485621 126.654054,-119.765169 C126.654054,-119.044716 126.070385,-118.460674 125.350392,-118.460674 Z M5.41351351,27.6426966 C4.69352102,27.6426966 4.10985178,27.0586546 4.10985178,26.3382022 C4.10985178,25.6177499 4.69352102,25.0337079 5.41351351,25.0337079 C6.133506,25.0337079 6.71717523,25.6177499 6.71717523,26.3382022 C6.71717523,27.0586546 6.133506,27.6426966 5.41351351,27.6426966 Z M352.187533,-272.391011 C351.46754,-272.391011 350.883871,-272.975053 350.883871,-273.695506 C350.883871,-274.415958 351.46754,-275 352.187533,-275 C352.907525,-275 353.491194,-274.415958 353.491194,-273.695506 C353.491194,-272.975053 352.907525,-272.391011 352.187533,-272.391011 Z M35.3977332,452.907865 C33.9577482,452.907865 32.7904098,451.739781 32.7904098,450.298876 C32.7904098,448.857972 33.9577482,447.689888 35.3977332,447.689888 C36.8377182,447.689888 38.0050567,448.857972 38.0050567,450.298876 C38.0050567,451.739781 36.8377182,452.907865 35.3977332,452.907865 Z M129.261377,726.851685 C127.821392,726.851685 126.654054,725.683601 126.654054,724.242697 C126.654054,722.801792 127.821392,721.633708 129.261377,721.633708 C130.701362,721.633708 131.868701,722.801792 131.868701,724.242697 C131.868701,725.683601 130.701362,726.851685 129.261377,726.851685 Z M43.2197036,880.782022 C41.7797186,880.782022 40.6123801,879.613938 40.6123801,878.173034 C40.6123801,876.732129 41.7797186,875.564045 43.2197036,875.564045 C44.6596885,875.564045 45.827027,876.732129 45.827027,878.173034 C45.827027,879.613938 44.6596885,880.782022 43.2197036,880.782022 Z M-16.7487358,-139.332584 C-18.1887208,-139.332584 -19.3560593,-140.500668 -19.3560593,-141.941573 C-19.3560593,-143.382478 -18.1887208,-144.550562 -16.7487358,-144.550562 C-15.3087509,-144.550562 -14.1414124,-143.382478 -14.1414124,-141.941573 C-14.1414124,-140.500668 -15.3087509,-139.332584 -16.7487358,-139.332584 Z M426.496251,-113.242697 C425.056266,-113.242697 423.888928,-114.410781 423.888928,-115.851685 C423.888928,-117.29259 425.056266,-118.460674 426.496251,-118.460674 C427.936236,-118.460674 429.103574,-117.29259 429.103574,-115.851685 C429.103574,-114.410781 427.936236,-113.242697 426.496251,-113.242697 Z M616.830863,116.348315 C615.390878,116.348315 614.22354,115.180231 614.22354,113.739326 C614.22354,112.298421 615.390878,111.130337 616.830863,111.130337 C618.270848,111.130337 619.438186,112.298421 619.438186,113.739326 C619.438186,115.180231 618.270848,116.348315 616.830863,116.348315 Z M661.155362,512.914607 C659.715377,512.914607 658.548038,511.746523 658.548038,510.305618 C658.548038,508.864713 659.715377,507.696629 661.155362,507.696629 C662.595347,507.696629 663.762685,508.864713 663.762685,510.305618 C663.762685,511.746523 662.595347,512.914607 661.155362,512.914607 Z" id="path-1"></path>
        <filter x="-1.0%" y="-1.3%" width="102.0%" height="102.6%" filterUnits="objectBoundingBox" id="filter-2">
            <feOffset dx="0" dy="0" in="SourceAlpha" result="shadowOffsetOuter1"></feOffset>
            <feGaussianBlur stdDeviation="5" in="shadowOffsetOuter1" result="shadowBlurOuter1"></feGaussianBlur>
            <feColorMatrix values="0 0 0 0 0.243137255   0 0 0 0 0.976470588   0 0 0 0 0.956862745  0 0 0 1 0" type="matrix" in="shadowBlurOuter1"></feColorMatrix>
        </filter>
    </defs>
    <g id="Page-1" stroke="none" stroke-width="1" fill="none" fill-rule="evenodd" opacity="0.5">
        <g id="Home">
            <g id="Background">
                <g id="Stars">
                    <use fill="black" fill-opacity="1" filter="url(#filter-2)" xlink:href="#path-1"></use>
                    <use fill="#EEFFFE" fill-rule="evenodd" xlink:href="#path-1"></use>
                </g>
            </g>
        </g>
    </g>
</svg>